<svg xmlns="http://www.w3.org/2000/svg" viewBox="0 0 512 512" width="100%" height="100%">
  <circle cx="256" cy="256" r="240" fill="#E1ECF9" />
  
  <circle cx="256" cy="256" r="220" fill="#3B7CB8" />
  
  <rect x="164" y="128" width="184" height="256" rx="40" ry="40" fill="#FFFFFF" />
  
  <path d="M 276 170 
           C 264 170, 252 176, 246 188 
           C 242 196, 240 206, 240 220 
           L 240 292 
           C 240 306, 238 316, 234 324 
           C 228 336, 216 342, 204 342
           C 194 342, 186 348, 186 358
           C 186 368, 194 374, 204 374
           C 224 374, 244 362, 254 344
           C 259 334, 262 322, 262 306
           L 262 234
           C 262 220, 264 210, 268 202
           C 274 190, 286 184, 298 184
           C 308 184, 316 178, 316 168
           C 316 158, 308 152, 298 152
           C 290 152, 282 158, 276 170 Z" 
        fill="#F19E1F" />
        
  <rect x="194" y="160" width="36" height="12" rx="6" ry="6" fill="#EBF3FC" />
  
  <rect x="274" y="248" width="24" height="24" rx="6" ry="6" fill="#EBF3FC" />
  <rect x="274" y="284" width="24" height="24" rx="6" ry="6" fill="#EBF3FC" />
  <rect x="204" y="248" width="24" height="24" rx="6" ry="6" fill="#EBF3FC" />
</svg>
